<svg xmlns="http://www.w3.org/2000/svg" xmlns:xlink="http://www.w3.org/1999/xlink" width="110.966" height="21.5" viewBox="0 0 110.966 21.5">
  <defs>
    <clipPath id="clip-path">
      <rect id="Rectangle_1512" data-name="Rectangle 1512" width="110.966" height="21.5" transform="translate(0 0)" fill="#fff"/>
    </clipPath>
  </defs>
  <g id="Group_751" data-name="Group 751" transform="translate(0 0)">
    <g id="Group_750" data-name="Group 750" transform="translate(0 0)" clip-path="url(#clip-path)">
      <path id="Path_645" data-name="Path 645" d="M.456,21.111a1.5,1.5,0,0,0,1.094.448,6.392,6.392,0,0,0,2.415-.513,6.261,6.261,0,0,0,1.947-1.311,6.156,6.156,0,0,0,1.3-1.918,6.341,6.341,0,0,0,.5-2.394V1.666A1.5,1.5,0,0,0,7.234.561,1.568,1.568,0,0,0,6.072.088,1.411,1.411,0,0,0,5,.555,1.55,1.55,0,0,0,4.55,1.666V15.431a2.846,2.846,0,0,1-.241,1.156,3.072,3.072,0,0,1-.637.938,2.843,2.843,0,0,1-.963.627,3.114,3.114,0,0,1-1.159.222,1.456,1.456,0,0,0-1.088.47A1.557,1.557,0,0,0,0,19.981a1.5,1.5,0,0,0,.456,1.131" transform="translate(0 -0.059)" fill="#fff"/>
      <path id="Path_646" data-name="Path 646" d="M43.826,13.612a5.9,5.9,0,0,0,.538-2.507V1.522A1.446,1.446,0,0,0,43.93.47,1.509,1.509,0,0,0,42.859,0a1.576,1.576,0,0,0-1.092.415,1.3,1.3,0,0,0-.446,1.022v9.441a3.543,3.543,0,0,1-.267,1.362,3.315,3.315,0,0,1-.757,1.12,3.811,3.811,0,0,1-1.12.747,3.5,3.5,0,0,1-2.719.016,3.713,3.713,0,0,1-1.09-.7,3.305,3.305,0,0,1-.758-1.071,3.219,3.219,0,0,1-.285-1.329v-9.5a1.426,1.426,0,0,0-.47-1.06A1.494,1.494,0,0,0,32.775,0a1.566,1.566,0,0,0-1.089.428,1.294,1.294,0,0,0-.461,1.008v9.441a6.894,6.894,0,0,0,.529,2.547,6.612,6.612,0,0,0,1.382,2.087,6.46,6.46,0,0,0,4.673,1.921,6.719,6.719,0,0,0,2.5-.475,6.456,6.456,0,0,0,2.085-1.326,6.666,6.666,0,0,0,1.437-2.02" transform="translate(-21.016 0)" fill="#fff"/>
      <path id="Path_647" data-name="Path 647" d="M89.693,17.281a1.582,1.582,0,0,0,1.1.414,1.5,1.5,0,0,0,1.06-.47,1.446,1.446,0,0,0,.433-1.051V6.59a5.9,5.9,0,0,0-.538-2.507,6.662,6.662,0,0,0-1.437-2.02A6.46,6.46,0,0,0,88.23.736a6.733,6.733,0,0,0-2.5-.474,6.457,6.457,0,0,0-4.672,1.921A6.6,6.6,0,0,0,79.68,4.271a6.9,6.9,0,0,0-.529,2.553v9.435a1.3,1.3,0,0,0,.461,1.008A1.567,1.567,0,0,0,80.7,17.7a1.493,1.493,0,0,0,1.08-.462,1.426,1.426,0,0,0,.47-1.06v-9.5a3.22,3.22,0,0,1,.285-1.329,3.307,3.307,0,0,1,.758-1.071,3.72,3.72,0,0,1,1.091-.7,3.359,3.359,0,0,1,1.322-.268,3.46,3.46,0,0,1,1.4.283,3.81,3.81,0,0,1,1.12.747,3.322,3.322,0,0,1,.757,1.119,3.552,3.552,0,0,1,.267,1.362v9.442a1.3,1.3,0,0,0,.446,1.022" transform="translate(-53.272 -0.176)" fill="#fff"/>
      <path id="Path_648" data-name="Path 648" d="M141.369,14.779a4.186,4.186,0,0,0,.755-1.141,5.551,5.551,0,0,0,.351-2.275V9.428a1.455,1.455,0,0,0-.445-1.077,1.524,1.524,0,0,0-1.134-.445h-3.839a1.572,1.572,0,0,0-1.152.448,1.432,1.432,0,0,0-.455,1.074,1.544,1.544,0,0,0,.459,1.148c.431.431,1.5.59,3.083.46l.342-.028.011.343a2.182,2.182,0,0,1-.384,1.466l-.034.036a5.965,5.965,0,0,1-1.76,1.128,5.758,5.758,0,0,1-4.334-.03,5.629,5.629,0,0,1-3-3,5.578,5.578,0,0,1-.438-2.2,5.478,5.478,0,0,1,.439-2.192,5.666,5.666,0,0,1,3-2.986,5.587,5.587,0,0,1,2.2-.438,5.423,5.423,0,0,1,2.525.606,5.935,5.935,0,0,1,1.94,1.6,1.163,1.163,0,0,0,.881.3,1.6,1.6,0,0,0,1.165-.49,1.536,1.536,0,0,0,.5-1.145,1.078,1.078,0,0,0-.236-.727,9.136,9.136,0,0,0-2.97-2.38,8.318,8.318,0,0,0-3.8-.889,8.7,8.7,0,0,0-6.195,2.562,9.009,9.009,0,0,0-1.866,2.786,8.527,8.527,0,0,0-.684,3.4,8.521,8.521,0,0,0,.684,3.4,9,9,0,0,0,1.866,2.786,8.824,8.824,0,0,0,9.69,1.85,8.544,8.544,0,0,0,2.836-2" transform="translate(-85.002 -0.001)" fill="#fff"/>
      <path id="Path_649" data-name="Path 649" d="M199.085,12.143a8.528,8.528,0,0,0,.684-3.4,8.532,8.532,0,0,0-.684-3.4,9.034,9.034,0,0,0-1.866-2.786A8.733,8.733,0,0,0,194.45.685a8.543,8.543,0,0,0-3.4-.684,8.7,8.7,0,0,0-6.194,2.562,9.012,9.012,0,0,0-1.866,2.786,8.527,8.527,0,0,0-.684,3.4,8.52,8.52,0,0,0,.684,3.4,9.01,9.01,0,0,0,1.866,2.786,8.7,8.7,0,0,0,6.195,2.562,8.528,8.528,0,0,0,3.4-.684,8.721,8.721,0,0,0,2.769-1.878,9.018,9.018,0,0,0,1.866-2.786m-2.854-1.193a5.665,5.665,0,0,1-2.986,3,5.483,5.483,0,0,1-2.192.439,5.579,5.579,0,0,1-2.2-.438,5.627,5.627,0,0,1-3-3,5.579,5.579,0,0,1-.439-2.2,5.484,5.484,0,0,1,.439-2.192,5.666,5.666,0,0,1,3-2.986,5.587,5.587,0,0,1,2.2-.438,5.491,5.491,0,0,1,2.192.439,5.7,5.7,0,0,1,2.986,2.986,5.493,5.493,0,0,1,.439,2.192,5.587,5.587,0,0,1-.438,2.2" transform="translate(-122.702 -0.001)" fill="#fff"/>
      <path id="Path_650" data-name="Path 650" d="M258.84,12.143a8.528,8.528,0,0,0,.684-3.4,8.533,8.533,0,0,0-.684-3.4,9.035,9.035,0,0,0-1.866-2.786A8.733,8.733,0,0,0,254.2.685a8.543,8.543,0,0,0-3.4-.684,8.7,8.7,0,0,0-6.194,2.562,9.011,9.011,0,0,0-1.866,2.786,8.527,8.527,0,0,0-.684,3.4,8.521,8.521,0,0,0,.684,3.4,9.011,9.011,0,0,0,1.866,2.786,8.7,8.7,0,0,0,6.195,2.562,8.528,8.528,0,0,0,3.4-.684,8.722,8.722,0,0,0,2.769-1.878,9.02,9.02,0,0,0,1.866-2.786m-2.854-1.193a5.665,5.665,0,0,1-2.986,3,5.483,5.483,0,0,1-2.192.439,5.579,5.579,0,0,1-2.2-.438,5.627,5.627,0,0,1-3-3,5.579,5.579,0,0,1-.439-2.2,5.483,5.483,0,0,1,.439-2.192,5.666,5.666,0,0,1,3-2.986,5.587,5.587,0,0,1,2.2-.438A5.491,5.491,0,0,1,253,3.568a5.7,5.7,0,0,1,2.986,2.986,5.492,5.492,0,0,1,.439,2.192,5.587,5.587,0,0,1-.438,2.2" transform="translate(-162.92 -0.001)" fill="#fff"/>
      <path id="Path_651" data-name="Path 651" d="M314.349,14.764a1.478,1.478,0,0,0-1.091-.459h-7.18V1.579A1.468,1.468,0,0,0,305.6.465,1.542,1.542,0,0,0,304.5,0a1.592,1.592,0,0,0-1.165.461,1.488,1.488,0,0,0-.47,1.117v14.3a1.77,1.77,0,0,0,.5,1.151,1.5,1.5,0,0,0,1.131.456h8.759a1.478,1.478,0,0,0,1.091-.459,1.545,1.545,0,0,0,.459-1.148,1.509,1.509,0,0,0-.459-1.119" transform="translate(-203.841 -0.001)" fill="#fff"/>
    </g>
  </g>
</svg>
