<svg xmlns="http://www.w3.org/2000/svg" xmlns:xlink="http://www.w3.org/1999/xlink" width="46.525" height="40.318" viewBox="0 0 46.525 40.318">
  <defs>
    <clipPath id="clip-path">
      <rect id="Rectangle_1514" data-name="Rectangle 1514" width="46.525" height="40.318" fill="none"/>
    </clipPath>
  </defs>
  <g id="Group_753" data-name="Group 753" transform="translate(0 0)">
    <g id="Group_752" data-name="Group 752" transform="translate(0 0)" clip-path="url(#clip-path)">
      <path id="Path_652" data-name="Path 652" d="M28.357,44.084a2.379,2.379,0,1,1,2.378-2.379,2.382,2.382,0,0,1-2.378,2.379" transform="translate(-5.163 -7.816)" fill="#fff"/>
      <path id="Path_653" data-name="Path 653" d="M28.256,39.631a1.975,1.975,0,1,1-1.975,1.975,1.974,1.974,0,0,1,1.975-1.975m0-.807a2.782,2.782,0,1,0,2.782,2.782,2.785,2.785,0,0,0-2.782-2.782" transform="translate(-5.063 -7.716)" fill="#fff"/>
      <path id="Path_654" data-name="Path 654" d="M19.083,45.422a1.7,1.7,0,1,1,1.7-1.7,1.706,1.706,0,0,1-1.7,1.7" transform="translate(-3.454 -8.35)" fill="#c1272d"/>
      <path id="Path_655" data-name="Path 655" d="M19.012,42.233A1.415,1.415,0,1,1,17.6,43.647a1.415,1.415,0,0,1,1.415-1.414m0-.578A1.992,1.992,0,1,0,21,43.647a1.994,1.994,0,0,0-1.992-1.992" transform="translate(-3.382 -8.279)" fill="#c1272d"/>
      <path id="Path_656" data-name="Path 656" d="M12.646,49.321a1.239,1.239,0,1,1,1.238-1.239,1.24,1.24,0,0,1-1.238,1.239" transform="translate(-2.267 -9.31)" fill="#fbb03b"/>
      <path id="Path_657" data-name="Path 657" d="M12.593,47a1.029,1.029,0,1,1-1.029,1.029A1.029,1.029,0,0,1,12.593,47m0-.42a1.449,1.449,0,1,0,1.449,1.449,1.45,1.45,0,0,0-1.449-1.449" transform="translate(-2.215 -9.258)" fill="#fbb03b"/>
      <path id="Path_658" data-name="Path 658" d="M43.718,49.441A1.239,1.239,0,1,1,44.957,48.2a1.24,1.24,0,0,1-1.239,1.239" transform="translate(-8.442 -9.333)" fill="#d9e021"/>
      <path id="Path_659" data-name="Path 659" d="M43.666,47.122a1.029,1.029,0,1,1-1.029,1.029,1.029,1.029,0,0,1,1.029-1.029m0-.42a1.449,1.449,0,1,0,1.449,1.449A1.45,1.45,0,0,0,43.666,46.7" transform="translate(-8.39 -9.282)" fill="#d9e021"/>
      <path id="Path_660" data-name="Path 660" d="M37.726,45.491a1.7,1.7,0,1,1,1.7-1.7,1.706,1.706,0,0,1-1.7,1.7" transform="translate(-7.159 -8.364)" fill="#fbb03b"/>
      <path id="Path_661" data-name="Path 661" d="M37.654,42.3a1.415,1.415,0,1,1-1.415,1.414A1.415,1.415,0,0,1,37.654,42.3m0-.578a1.992,1.992,0,1,0,1.992,1.992,1.994,1.994,0,0,0-1.992-1.992" transform="translate(-7.087 -8.292)" fill="#fbb03b"/>
      <line id="Line_6" data-name="Line 6" x1="0.018" transform="translate(23.11 0.955)" fill="none" stroke="#00ae68" stroke-linecap="round" stroke-linejoin="round" stroke-width="2.386"/>
      <path id="Path_662" data-name="Path 662" d="M34.233,31.058A5.753,5.753,0,0,1,31.3,30.2a11.68,11.68,0,0,1-1.438,1.376,7.667,7.667,0,0,0,4.372,1.391,4.656,4.656,0,0,0,.65-.049,11.251,11.251,0,0,0,3.7-1.651,14.875,14.875,0,0,0,1.2-.961c.056-.054.088-.087.091-.089a.3.3,0,0,1,.058-.042,19.777,19.777,0,0,0,2.779-3.143C45.849,22.644,46.955,17.77,45.668,14c-.344-1.007-1.064-.9-1.277-.847a.956.956,0,0,0-.361.179,16.9,16.9,0,0,0-8.874,14.215,6.942,6.942,0,0,0,.562,3.177,3.988,3.988,0,0,1-1.484.335m11.3-16.739h.007a.412.412,0,0,1-.012.058q0-.029,0-.058m-8.47,13.35A15.123,15.123,0,0,1,44.1,15.481c.659,3.066-.405,6.894-2.943,10.442A16.676,16.676,0,0,1,37.4,29.771a5.062,5.062,0,0,1-.335-2.1" transform="translate(-5.934 -2.607)" fill="#fff"/>
      <path id="Path_663" data-name="Path 663" d="M53.731,30.392a8.919,8.919,0,0,0-4.622-.062c-2.846.854-5.888,3.044-5.888,6.627v.014a6.841,6.841,0,0,1-2.6-1.642,11.971,11.971,0,0,1-1.716.942A9.035,9.035,0,0,0,43.59,39.06c.009.024.02.048.03.072a15.191,15.191,0,0,0,2.207.15c4.364-.179,7.871-4.048,8.418-7.787a.986.986,0,0,0,.01-.118l0-.111a.956.956,0,0,0-.526-.873m-8.579,6.973c-.013-.134-.019-.27-.019-.408,0-1.662,1.189-3.795,4.526-4.8a8.972,8.972,0,0,1,2.524-.175c-.771,2.621-3.512,5.6-7.031,5.38" transform="translate(-7.732 -5.973)" fill="#fff"/>
      <path id="Path_664" data-name="Path 664" d="M15.663,31.435a6.768,6.768,0,0,1-2.422,1.9,6.825,6.825,0,0,1-.288,2.152,9.046,9.046,0,0,0,3.473-2.083.312.312,0,0,1,.092-.162,7.488,7.488,0,0,0,.63-.624c.063-.079.127-.157.187-.236l.012,0a7.048,7.048,0,0,0,1.014-1.642l-.062-.022a6.955,6.955,0,0,0,.561-3.178A16.9,16.9,0,0,0,9.985,13.33a.953.953,0,0,0-.362-.179c-.212-.056-.933-.16-1.276.847-1.288,3.772-.182,8.646,2.958,13.037a18.113,18.113,0,0,0,4.358,4.4M8.473,14.318H8.48l0,.057q-.007-.03-.012-.058M9.914,15.49A15.269,15.269,0,0,1,16.95,27.668a5.049,5.049,0,0,1-.335,2.1,16.657,16.657,0,0,1-3.756-3.848c-2.536-3.545-3.6-7.369-2.945-10.433" transform="translate(-1.554 -2.607)" fill="#fff"/>
      <path id="Path_665" data-name="Path 665" d="M27.458,28.571a11.075,11.075,0,0,0,1.425-1.336c-.02-.015-.042-.028-.062-.043C30.928,24.773,32.4,20.93,32.4,15.526,32.4,11.618,30.96,3.263,28.308.6a.967.967,0,0,0-.893-.6c-.026,0-.054,0-.081.006S27.28,0,27.253,0h-.017a.943.943,0,0,0-.879.6C23.837,3.1,22.2,10.634,22.2,14.98c0,5.081,1.47,9.435,3.832,12.2A6.244,6.244,0,0,1,22.3,28.45a3.327,3.327,0,0,1-.807-.112,7.634,7.634,0,0,1-1,1.689,5.538,5.538,0,0,0,1.812.335,8.308,8.308,0,0,0,5.11-1.83l.05.038M24.111,14.98c0-4.4,1.6-10.431,3.216-12.6,1.653,2.3,3.161,8.957,3.161,13.142,0,3.968-.885,7.319-2.562,9.69-.163.232-.334.45-.51.658-1.927-2.243-3.305-5.915-3.305-10.895" transform="translate(-4.071 0)" fill="#fff"/>
      <path id="Path_666" data-name="Path 666" d="M11.05,36.968l-.013,0v-.014a5.928,5.928,0,0,0-.159-1.367c-.021-.077-.043-.153-.068-.229A.3.3,0,0,1,10.8,35.3c-.763-2.612-3.276-4.259-5.654-4.972a8.919,8.919,0,0,0-4.622.062A.956.956,0,0,0,0,31.266l0,.111a.986.986,0,0,0,.01.118C.56,35.234,4.067,39.1,8.432,39.282A4.246,4.246,0,0,1,4.878,41.2a.956.956,0,1,0,0,1.912,6.167,6.167,0,0,0,5.61-3.617,6.979,6.979,0,0,0,.562-2.532m-1.944.4c-3.522.222-6.26-2.758-7.031-5.38a8.969,8.969,0,0,1,2.524.175c3.337,1,4.526,3.135,4.526,4.8,0,.138-.006.274-.019.408" transform="translate(0 -5.973)" fill="#fff"/>
      <path id="Path_667" data-name="Path 667" d="M50.625,43.626a4.233,4.233,0,0,1-3.05-1.3c-.175.008-.375.014-.6.014a15.708,15.708,0,0,1-1.8-.107,6.163,6.163,0,0,0,5.451,3.3.956.956,0,1,0,0-1.912" transform="translate(-8.978 -8.394)" fill="#fff"/>
      <path id="Path_668" data-name="Path 668" d="M28.821,24.953A38.688,38.688,0,0,1,28.956,6.9a118.619,118.619,0,0,0-.135,18.053" transform="translate(-5.528 -1.372)" fill="#fff"/>
      <path id="Path_669" data-name="Path 669" d="M10.7,18.166a33.318,33.318,0,0,1,6.4,11.811,102.358,102.358,0,0,0-6.4-11.811" transform="translate(-2.127 -3.61)" fill="#fff"/>
      <path id="Path_670" data-name="Path 670" d="M3.9,33.684A11.9,11.9,0,0,1,9.708,37.6,36.146,36.146,0,0,0,3.9,33.684" transform="translate(-0.775 -6.694)" fill="#fff"/>
      <path id="Path_671" data-name="Path 671" d="M45.557,18.223a29.7,29.7,0,0,0-5.679,11.333,91.351,91.351,0,0,1,5.679-11.333" transform="translate(-7.925 -3.622)" fill="#fff"/>
      <path id="Path_672" data-name="Path 672" d="M53.142,33.483a8.25,8.25,0,0,0-5.389,3.756,24.592,24.592,0,0,1,5.389-3.756" transform="translate(-9.49 -6.655)" fill="#fff"/>
    </g>
  </g>
</svg>
