<svg xmlns="http://www.w3.org/2000/svg" xmlns:xlink="http://www.w3.org/1999/xlink" width="123" height="128.155" viewBox="0 0 123 128.155">
  <defs>
    <clipPath id="clip-path">
      <rect id="Rectangle_1634" data-name="Rectangle 1634" width="123" height="128.155" fill="none"/>
    </clipPath>
  </defs>
  <g id="Group_826" data-name="Group 826" transform="translate(0 0)">
    <g id="Group_825" data-name="Group 825" transform="translate(0 0)" clip-path="url(#clip-path)">
      <path id="Path_835" data-name="Path 835" d="M49.794,62.455a8.8,8.8,0,1,0-8.8,8.8,8.8,8.8,0,0,0,8.8-8.8" transform="translate(22.512 37.509)" fill="#49c4a8"/>
      <path id="Path_836" data-name="Path 836" d="M26.45,65.3a6.3,6.3,0,1,0-6.3,6.3,6.3,6.3,0,0,0,6.3-6.3" transform="translate(9.683 41.246)" fill="#76e7eb"/>
      <path id="Path_837" data-name="Path 837" d="M26.45,65.3a6.3,6.3,0,1,0-6.3,6.3A6.3,6.3,0,0,0,26.45,65.3Z" transform="translate(9.683 41.246)" fill="none" stroke="#76e7eb" stroke-miterlimit="10" stroke-width="2.627"/>
      <path id="Path_838" data-name="Path 838" d="M6.067,79.417A5.516,5.516,0,1,1,11.584,73.9a5.524,5.524,0,0,1-5.517,5.517" transform="translate(0.384 47.803)" fill="#fbb03b"/>
      <path id="Path_839" data-name="Path 839" d="M6.451,69.7a4.581,4.581,0,1,1-4.581,4.581A4.581,4.581,0,0,1,6.451,69.7m0-1.871A6.451,6.451,0,1,0,12.9,74.285a6.458,6.458,0,0,0-6.451-6.451" transform="translate(0 47.418)" fill="#fbb03b"/>
      <path id="Path_840" data-name="Path 840" d="M75.508,73.77a4.581,4.581,0,1,0-4.581,4.581,4.581,4.581,0,0,0,4.581-4.581" transform="translate(46.378 48.365)" fill="#c2f2dd"/>
      <path id="Path_841" data-name="Path 841" d="M75.508,73.77a4.581,4.581,0,1,0-4.581,4.581A4.581,4.581,0,0,0,75.508,73.77Z" transform="translate(46.378 48.365)" fill="none" stroke="#c2f2dd" stroke-miterlimit="10" stroke-width="1.313"/>
      <path id="Path_842" data-name="Path 842" d="M53,65.446a6.3,6.3,0,1,1,6.3,6.3,6.3,6.3,0,0,1-6.3-6.3" transform="translate(37.046 41.346)" fill="#d8dd75"/>
      <path id="Path_843" data-name="Path 843" d="M53,65.446a6.3,6.3,0,1,1,6.3,6.3A6.3,6.3,0,0,1,53,65.446Z" transform="translate(37.046 41.346)" fill="none" stroke="#d8dd75" stroke-miterlimit="10" stroke-width="2.627"/>
      <line id="Line_45" data-name="Line 45" x1="0.044" transform="translate(62.805 2.379)" fill="#49c4a8"/>
      <path id="Path_844" data-name="Path 844" d="M49.044,60.061a14.325,14.325,0,0,1-7.3-2.129,28.888,28.888,0,0,1-3.58,3.425A19.083,19.083,0,0,0,49.044,64.82a11.549,11.549,0,0,0,1.619-.121,27.994,27.994,0,0,0,9.2-4.11A37.985,37.985,0,0,0,62.857,58.2c.138-.134.217-.217.224-.223a.787.787,0,0,1,.146-.1,49.192,49.192,0,0,0,6.918-7.826c7.817-10.932,10.571-23.063,7.365-32.453-.856-2.508-2.649-2.248-3.179-2.109a2.392,2.392,0,0,0-.9.443C70.481,17.4,52.894,27.133,51.341,51.319a17.3,17.3,0,0,0,1.4,7.909,9.928,9.928,0,0,1-3.694.833M77.177,18.39h.017a1.181,1.181,0,0,1-.029.143c.005-.048.008-.1.012-.143M56.09,51.623C57.268,33.284,68.7,24.311,73.6,21.284c1.64,7.632-1.009,17.162-7.326,26a41.528,41.528,0,0,1-9.351,9.577,12.579,12.579,0,0,1-.834-5.233" transform="translate(26.677 10.767)" fill="#49c4a8"/>
      <path id="Path_845" data-name="Path 845" d="M85.686,36.125c-2.593-1.3-9.1-.873-11.5-.153C67.1,38.1,59.523,43.55,59.523,52.472v.036a17,17,0,0,1-6.467-4.09,29.7,29.7,0,0,1-4.273,2.346A22.464,22.464,0,0,0,60.442,57.7c.022.061.051.121.073.182a37.869,37.869,0,0,0,5.493.372c10.865-.445,19.6-10.079,20.958-19.384a2.892,2.892,0,0,0,.025-.3L87,38.3a2.382,2.382,0,0,0-1.31-2.175M64.329,53.486q-.048-.5-.049-1.014c0-4.139,2.961-9.448,11.27-11.941a22.331,22.331,0,0,1,6.283-.437c-1.92,6.524-8.743,13.947-17.5,13.392" transform="translate(34.101 24.666)" fill="#49c4a8"/>
      <path id="Path_846" data-name="Path 846" d="M31.811,61a16.877,16.877,0,0,1-6.03,4.732,17.016,17.016,0,0,1-.719,5.359A22.54,22.54,0,0,0,33.711,65.9a.774.774,0,0,1,.229-.4,19.1,19.1,0,0,0,1.567-1.555c.158-.194.314-.389.464-.588l.031.012a17.617,17.617,0,0,0,2.525-4.086c-.053-.02-.1-.036-.156-.058a17.3,17.3,0,0,0,1.4-7.909C38.213,27.132,20.625,17.4,17.675,15.929a2.369,2.369,0,0,0-.9-.445c-.53-.139-2.323-.4-3.179,2.109-3.206,9.391-.454,21.523,7.365,32.453A45.119,45.119,0,0,0,31.811,61m-17.9-42.612h.019c0,.049.007.1.012.143a1.2,1.2,0,0,1-.031-.143M17.5,21.3A38.014,38.014,0,0,1,35.017,51.622a12.587,12.587,0,0,1-.834,5.235,41.5,41.5,0,0,1-9.351-9.579C18.519,38.453,15.869,28.933,17.5,21.3" transform="translate(8.587 10.766)" fill="#49c4a8"/>
      <path id="Path_847" data-name="Path 847" d="M44.511,71.127A27.644,27.644,0,0,0,48.062,67.8c-.051-.037-.105-.07-.156-.109,5.247-6.021,8.91-15.589,8.91-29.04,0-9.729-3.583-30.53-10.186-37.156A2.408,2.408,0,0,0,44.405,0c-.068,0-.136.01-.2.015S44.069,0,44,0h-.044a2.346,2.346,0,0,0-2.185,1.492C35.5,7.712,31.42,26.473,31.42,37.292c0,12.649,3.66,23.487,9.54,30.374a15.542,15.542,0,0,1-9.292,3.162,8.328,8.328,0,0,1-2.01-.279,18.981,18.981,0,0,1-2.5,4.2,13.793,13.793,0,0,0,4.513.834A20.67,20.67,0,0,0,44.387,71.03c.041.034.083.065.124.1M36.179,37.292c0-10.959,3.993-25.966,8.008-31.356,4.113,5.714,7.87,22.3,7.87,32.717,0,9.878-2.205,18.219-6.378,24.123-.408.578-.834,1.12-1.273,1.638-4.793-5.581-8.227-14.726-8.227-27.122" transform="translate(18.982 0)" fill="#49c4a8"/>
      <path id="Path_848" data-name="Path 848" d="M30.612,52.494l-.034.014v-.036a14.688,14.688,0,0,0-.394-3.4c-.053-.19-.107-.381-.17-.569a.735.735,0,0,1-.019-.15c-1.9-6.5-8.155-10.6-14.077-12.376-2.4-.72-8.911-1.15-11.5.153A2.382,2.382,0,0,0,3.1,38.3l.005.275a2.891,2.891,0,0,0,.025.3C4.5,48.178,13.227,57.81,24.092,58.255a10.572,10.572,0,0,1-8.845,4.788,2.379,2.379,0,1,0,0,4.759,15.354,15.354,0,0,0,13.964-9,17.4,17.4,0,0,0,1.4-6.3m-4.841.992C17,54.038,10.187,46.62,8.268,40.094a22.321,22.321,0,0,1,6.283.437c8.308,2.492,11.27,7.8,11.27,11.941q0,.512-.049,1.014" transform="translate(2.17 24.666)" fill="#49c4a8"/>
      <path id="Path_849" data-name="Path 849" d="M69.71,53.046a10.544,10.544,0,0,1-7.593-3.225c-.435.019-.931.032-1.493.032a39.173,39.173,0,0,1-4.482-.265A15.338,15.338,0,0,0,69.71,57.8a2.38,2.38,0,0,0,0-4.759" transform="translate(39.245 34.663)" fill="#49c4a8"/>
      <path id="Path_850" data-name="Path 850" d="M38.267,53.044s-5.86-21.6.335-44.943a295.341,295.341,0,0,0-.335,44.943" transform="translate(24.997 5.663)" fill="#49c4a8"/>
      <path id="Path_851" data-name="Path 851" d="M15.669,21.327A82.926,82.926,0,0,1,31.6,50.729a255.135,255.135,0,0,0-15.934-29.4" transform="translate(10.953 14.908)" fill="#49c4a8"/>
      <path id="Path_852" data-name="Path 852" d="M7.683,39.546A29.616,29.616,0,0,1,22.14,49.307,90.026,90.026,0,0,0,7.683,39.546" transform="translate(5.371 27.644)" fill="#fff"/>
      <path id="Path_853" data-name="Path 853" d="M64.057,21.394A73.943,73.943,0,0,0,49.923,49.608,227.267,227.267,0,0,1,64.057,21.394" transform="translate(34.898 14.955)" fill="#49c4a8"/>
      <path id="Path_854" data-name="Path 854" d="M72.582,39.31a20.533,20.533,0,0,0-13.414,9.35,61.231,61.231,0,0,1,13.414-9.35" transform="translate(41.361 27.479)" fill="#fff"/>
    </g>
  </g>
</svg>
