<svg xmlns="http://www.w3.org/2000/svg" width="31" height="31" viewBox="0 0 31 31">
  <g id="Group_846" data-name="Group 846" transform="translate(3959 -307)">
    <g id="Group_844" data-name="Group 844">
      <circle id="Ellipse_362" data-name="Ellipse 362" cx="15.5" cy="15.5" r="15.5" transform="translate(-3959 307)" fill="#f8af6f"/>
      <g id="wrench" transform="translate(-3952.259 312.982)">
        <g id="Group_808" data-name="Group 808" transform="translate(0 -0.001)">
          <path id="Path_798" data-name="Path 798" d="M17.17,3.112a.517.517,0,0,0-.847-.175L13.655,5.606,12.22,5.3l-.308-1.435L14.58,1.194a.517.517,0,0,0-.175-.847A4.935,4.935,0,0,0,7.831,6.261L.709,13.383a2.422,2.422,0,0,0,3.425,3.425l7.122-7.122A4.935,4.935,0,0,0,17.17,3.112ZM15.341,7.691a3.922,3.922,0,0,1-4.056.92.517.517,0,0,0-.538.122L3.4,16.076a1.387,1.387,0,1,1-1.962-1.962L8.785,6.771a.517.517,0,0,0,.122-.538,3.9,3.9,0,0,1,4.317-5.146L10.981,3.33a.517.517,0,0,0-.14.475l.438,2.037a.517.517,0,0,0,.4.4l2.037.438a.517.517,0,0,0,.475-.14l2.244-2.244A3.9,3.9,0,0,1,15.341,7.691Z" transform="translate(0 0.001)" fill="#fff"/>
        </g>
      </g>
    </g>
  </g>
</svg>
