<svg xmlns="http://www.w3.org/2000/svg" width="31" height="31" viewBox="0 0 31 31">
  <g id="Group_847" data-name="Group 847" transform="translate(4030 331)">
    <circle id="Ellipse_363" data-name="Ellipse 363" cx="15.5" cy="15.5" r="15.5" transform="translate(-4030 -331)" fill="#49c4a8"/>
    <g id="magic-box" transform="translate(-4065.726 -329)">
      <path id="Path_799" data-name="Path 799" d="M42.581,182.954l-1.209,1.669a.768.768,0,0,0,.363,1.174l.781.28v5.435a1.173,1.173,0,0,0,.776,1.1l6.38,2.282a3.562,3.562,0,0,0,2.4,0l6.38-2.282a1.173,1.173,0,0,0,.776-1.1v-1.72a.337.337,0,0,0-.674,0v1.72a.5.5,0,0,1-.33.468l-6.38,2.282a2.881,2.881,0,0,1-.636.149v-7.351l.746,1.03a.773.773,0,0,0,.881.273l5.719-2.046v1.9a.337.337,0,0,0,.674,0v-2.143l.781-.28a.768.768,0,0,0,.363-1.174h0l-1.209-1.669a.357.357,0,0,0-.16-.12l-2.92-1.038a.337.337,0,1,0-.226.635l2.03.722-6.68,2.389v-4.653a3.494,3.494,0,0,1,.836.186l2.323.826a.337.337,0,0,0,.226-.635l-2.323-.826a4.174,4.174,0,0,0-2.8,0l-6.734,2.394A.353.353,0,0,0,42.581,182.954Zm-.663,2.064,1.061-1.464,7.359,2.632-1.093,1.509a.1.1,0,0,1-.108.033l-7.174-2.566A.094.094,0,0,1,41.918,185.018Zm1.6,6.961a.5.5,0,0,1-.33-.468v-5.194l5.719,2.046a.773.773,0,0,0,.879-.271l0,0h0l.746-1.03v7.35a2.883,2.883,0,0,1-.636-.149Zm16.309-6.961a.094.094,0,0,1-.045.144l-7.174,2.566a.1.1,0,0,1-.108-.033l-1.093-1.509,7.359-2.632ZM49.7,181.075a3.5,3.5,0,0,1,.836-.186v4.653l-6.68-2.389Z" transform="translate(0 -172.103)" fill="#fff"/>
      <path id="Path_800" data-name="Path 800" d="M249.168,59.608V55.4a.337.337,0,1,0-.674,0v4.211a.337.337,0,0,0,.674,0Z" transform="translate(-197.957 -52.586)" fill="#fff"/>
      <path id="Path_801" data-name="Path 801" d="M297.086,76.3a5.007,5.007,0,0,0-2.735,3.87.337.337,0,1,0,.668.089,4.322,4.322,0,0,1,1.282-2.581,4.08,4.08,0,0,1,1.056-.761.337.337,0,0,0-.271-.617Z" transform="translate(-241.751 -72.842)" fill="#fff"/>
      <path id="Path_802" data-name="Path 802" d="M339.115,127.253a.337.337,0,0,0,.585.335,4.342,4.342,0,0,1,2.782-2.108.337.337,0,1,0-.162-.654A5.074,5.074,0,0,0,339.115,127.253Z" transform="translate(-284.465 -119.208)" fill="#fff"/>
      <path id="Path_803" data-name="Path 803" d="M146.206,76.471a.337.337,0,0,0,.174.444,4.379,4.379,0,0,1,2.337,3.342.337.337,0,0,0,.668-.089,5.007,5.007,0,0,0-2.735-3.87A.337.337,0,0,0,146.206,76.471Z" transform="translate(-100.237 -72.842)" fill="#fff"/>
      <path id="Path_804" data-name="Path 804" d="M91.28,125.072a.337.337,0,0,0,.246.408,4.342,4.342,0,0,1,2.782,2.108.337.337,0,0,0,.585-.335,5.074,5.074,0,0,0-3.205-2.427A.337.337,0,0,0,91.28,125.072Z" transform="translate(-47.796 -119.208)" fill="#fff"/>
      <path id="Path_805" data-name="Path 805" d="M386.106,64.12a.337.337,0,0,0,0,.674h.235v.235a.337.337,0,1,0,.674,0v-.235h.235a.337.337,0,1,0,0-.674h-.235v-.235a.337.337,0,1,0-.674,0v.235Z" transform="translate(-329.065 -60.693)" fill="#fff"/>
      <path id="Path_806" data-name="Path 806" d="M79.121,168.05h-.235a.337.337,0,1,0,0,.674h.235v.235a.337.337,0,0,0,.674,0v-.235h.235a.337.337,0,1,0,0-.674h-.235v-.235a.337.337,0,0,0-.674,0Z" transform="translate(-35.646 -159.954)" fill="#fff"/>
      <path id="Path_807" data-name="Path 807" d="M284.355,1.039a1.665,1.665,0,0,1-.72-.722.578.578,0,0,0-1.031,0,1.664,1.664,0,0,1-.72.722.582.582,0,0,0,0,1.034,1.664,1.664,0,0,1,.719.717.587.587,0,0,0,1.037,0,1.665,1.665,0,0,1,.719-.717.582.582,0,0,0,0-1.034Zm-1.236,1.3a2.352,2.352,0,0,0-.782-.782,2.35,2.35,0,0,0,.782-.781,2.351,2.351,0,0,0,.782.781A2.352,2.352,0,0,0,283.12,2.338Z" transform="translate(-229.546 0)" fill="#fff"/>
      <path id="Path_808" data-name="Path 808" d="M174.184,29.993a.524.524,0,0,0,.927,0,1.16,1.16,0,0,1,.5-.5.521.521,0,0,0,0-.925h0a1.16,1.16,0,0,1-.5-.5.517.517,0,0,0-.923,0,1.16,1.16,0,0,1-.5.5.521.521,0,0,0,0,.925A1.16,1.16,0,0,1,174.184,29.993Zm.464-1.393a1.85,1.85,0,0,0,.431.431,1.851,1.851,0,0,0-.431.431,1.851,1.851,0,0,0-.431-.431A1.849,1.849,0,0,0,174.647,28.6Z" transform="translate(-126.238 -26.533)" fill="#fff"/>
    </g>
  </g>
</svg>
