<svg xmlns="http://www.w3.org/2000/svg" width="31" height="31" viewBox="0 0 31 31">
  <g id="Group_847" data-name="Group 847" transform="translate(4019 -135)">
    <circle id="Ellipse_334" data-name="Ellipse 334" cx="15.5" cy="15.5" r="15.5" transform="translate(-4019 135)" fill="#49c4a8"/>
    <path id="user" d="M18.433,3.163A10.8,10.8,0,0,0,3.163,18.433,10.8,10.8,0,0,0,18.433,3.163ZM5.413,18.66a5.468,5.468,0,0,1,10.769,0,9.512,9.512,0,0,1-10.769,0ZM7.365,9.443A3.433,3.433,0,1,1,10.8,12.876,3.437,3.437,0,0,1,7.365,9.443Zm9.914,8.339a6.744,6.744,0,0,0-3.92-4.4,4.7,4.7,0,1,0-5.121,0,6.743,6.743,0,0,0-3.92,4.4,9.532,9.532,0,1,1,12.961,0Zm0,0" transform="translate(-4014 140)" fill="#fff"/>
  </g>
</svg>
