<svg xmlns="http://www.w3.org/2000/svg" width="19.016" height="24.669" viewBox="0 0 19.016 24.669">
  <path id="clipboard" d="M16.607,1.9H14.262V.964A.964.964,0,0,0,13.3,0H5.717a.964.964,0,0,0-.964.964V1.9H2.409A2.412,2.412,0,0,0,0,4.307V22.26a2.412,2.412,0,0,0,2.409,2.409h14.2a2.412,2.412,0,0,0,2.409-2.409V4.307A2.412,2.412,0,0,0,16.607,1.9Zm-4.272.029V3.8H6.681V1.927ZM17.089,22.26a.482.482,0,0,1-.482.482H2.409a.482.482,0,0,1-.482-.482V4.307a.482.482,0,0,1,.482-.482H4.754V4.76a.964.964,0,0,0,.964.964H13.3a.964.964,0,0,0,.964-.964V3.826h2.345a.483.483,0,0,1,.482.482ZM13.979,11.251a.964.964,0,0,1,0,1.363L8.915,17.678a.964.964,0,0,1-1.363,0L5.036,15.162A.964.964,0,0,1,6.4,13.8l1.835,1.835,4.382-4.382A.964.964,0,0,1,13.979,11.251Zm0,0" fill="#33d6af"/>
</svg>
