<svg xmlns="http://www.w3.org/2000/svg" width="61.375" height="61.375" viewBox="0 0 61.375 61.375">
  <g id="Group_847" data-name="Group 847" transform="translate(3961 -667.313)">
    <g id="dishwasher" transform="translate(-3965.75 662.563)">
      <path id="Path_688" data-name="Path 688" d="M65.219,4.75H5.656a.907.907,0,0,0-.906.906V65.219a.907.907,0,0,0,.906.906H65.219a.907.907,0,0,0,.906-.906V5.656A.907.907,0,0,0,65.219,4.75Zm-.906,1.813V16.576H6.563V6.563ZM6.563,64.312V18.389H64.312V64.312Z" fill="#d8dd75"/>
      <path id="Path_689" data-name="Path 689" d="M64.9,49.5H14.656a.907.907,0,0,0-.906.906V80.187a.907.907,0,0,0,.906.906H64.9a.907.907,0,0,0,.906-.906V50.406A.907.907,0,0,0,64.9,49.5ZM26.655,71.183H21.415c.8-3.386,2.545-5.477,4.206-5.477a3.26,3.26,0,0,1,2.465,1.522,14.128,14.128,0,0,0-1.431,3.954Zm3.263-3.509A3.6,3.6,0,0,1,32.7,65.706a3.27,3.27,0,0,1,2.464,1.523,14.08,14.08,0,0,0-1.435,3.954H28.5a11.379,11.379,0,0,1,1.416-3.508Zm7.08,0a3.593,3.593,0,0,1,2.776-1.968,3.27,3.27,0,0,1,2.464,1.523,14.13,14.13,0,0,0-1.426,3.954H35.581A11.343,11.343,0,0,1,37,67.674Zm7.075,0a3.594,3.594,0,0,1,2.776-1.968,3.275,3.275,0,0,1,2.469,1.523,14.081,14.081,0,0,0-1.435,3.954H42.659a11.379,11.379,0,0,1,1.416-3.508Zm7.082,0a3.58,3.58,0,0,1,2.775-1.968c1.661,0,3.405,2.091,4.206,5.477h-8.4a11.331,11.331,0,0,1,1.422-3.51Zm2.775-3.781a4.769,4.769,0,0,0-3.535,1.8,4.379,4.379,0,0,0-7.08,0,4.776,4.776,0,0,0-3.537-1.8,4.774,4.774,0,0,0-3.537,1.8,4.776,4.776,0,0,0-3.537-1.8,4.781,4.781,0,0,0-3.543,1.8,4.77,4.77,0,0,0-3.537-1.8c-2.809,0-5.14,2.992-6.052,7.289H15.563V59.411H63.989V71.183H59.983c-.912-4.3-3.243-7.289-6.052-7.289Zm10.06-12.58V57.6H15.563V51.313ZM15.563,73h3.712a20.511,20.511,0,0,0-.122,2.23,19.7,19.7,0,0,0,.418,4.055H15.563Zm5.4,2.23A18.864,18.864,0,0,1,21.1,73h5.264a20.229,20.229,0,0,0-.127,2.23,19.864,19.864,0,0,0,.414,4.055H21.426A17.673,17.673,0,0,1,20.965,75.226ZM28.5,79.281a17.882,17.882,0,0,1-.457-4.055A18.463,18.463,0,0,1,28.18,73h5.254a20.221,20.221,0,0,0-.127,2.23,19.7,19.7,0,0,0,.418,4.055Zm7.079,0a17.709,17.709,0,0,1-.46-4.055,18.459,18.459,0,0,1,.135-2.231h5.259a20.227,20.227,0,0,0-.127,2.23,19.864,19.864,0,0,0,.414,4.055Zm7.077,0a17.882,17.882,0,0,1-.457-4.055A18.462,18.462,0,0,1,42.336,73H47.59a20.222,20.222,0,0,0-.127,2.23,19.7,19.7,0,0,0,.418,4.055H42.657Zm9.093,0H49.735a17.709,17.709,0,0,1-.46-4.055,18.459,18.459,0,0,1,.135-2.231h9.044a18.865,18.865,0,0,1,.133,2.23,17.7,17.7,0,0,1-.46,4.055Zm8.231,0a19.7,19.7,0,0,0,.418-4.055A20.51,20.51,0,0,0,60.278,73H63.99v6.286Z" transform="translate(-4.339 -21.573)" fill="#d8dd75"/>
      <path id="Path_690" data-name="Path 690" d="M71.641,17.98h14.6a.906.906,0,0,0,0-1.813h-14.6a.906.906,0,0,0,0,1.813Z" transform="translate(-31.809 -5.504)" fill="#d8dd75"/>
      <path id="Path_691" data-name="Path 691" d="M24.146,18.087a2.46,2.46,0,1,0-2.46-2.46A2.46,2.46,0,0,0,24.146,18.087Zm0-3.108a.647.647,0,1,1-.647.647A.647.647,0,0,1,24.146,14.98Z" transform="translate(-8.164 -4.058)" fill="#d8dd75"/>
      <path id="Path_692" data-name="Path 692" d="M35.633,18.087a2.46,2.46,0,1,0-2.46-2.46A2.46,2.46,0,0,0,35.633,18.087Zm0-3.108a.647.647,0,1,1-.647.647A.647.647,0,0,1,35.633,14.98Z" transform="translate(-13.702 -4.058)" fill="#d8dd75"/>
      <path id="Path_693" data-name="Path 693" d="M47.12,18.087a2.46,2.46,0,1,0-2.46-2.46A2.46,2.46,0,0,0,47.12,18.087Zm0-3.108a.647.647,0,1,1-.647.647A.647.647,0,0,1,47.12,14.98Z" transform="translate(-19.239 -4.058)" fill="#d8dd75"/>
    </g>
  </g>
</svg>
