<?xml version="1.0" encoding="iso-8859-1"?>
<!-- Generator: Adobe Illustrator 19.0.0, SVG Export Plug-In . SVG Version: 6.00 Build 0)  -->
<svg fill="#DADD44" version="1.1" id="Layer_1" xmlns="http://www.w3.org/2000/svg" xmlns:xlink="http://www.w3.org/1999/xlink" x="0px" y="0px"
	 viewBox="0 0 480 480" style="enable-background:new 0 0 480 480;" xml:space="preserve">
<g>
	<g>
		<g>
			<path d="M336,0H144c-17.648,0-32,14.352-32,32v416c0,17.648,14.352,32,32,32h192c17.648,0,32-14.352,32-32V32
				C368,14.352,353.648,0,336,0z M144,448V32h192l0.016,416H144z"/>
			<path d="M240,352c-17.648,0-32,14.352-32,32s14.352,32,32,32s32-14.352,32-32S257.648,352,240,352z M240,400
				c-8.832,0-16-7.184-16-16c0-8.816,7.168-16,16-16c8.832,0,16,7.184,16,16C256,392.816,248.832,400,240,400z"/>
			<path d="M312,48H168c-4.416,0-8,3.584-8,8v48c0,4.416,3.584,8,8,8h144c4.416,0,8-3.584,8-8V56C320,51.584,316.416,48,312,48z
				 M304,96H176V64h128V96z"/>
			<path d="M312,128H168c-4.416,0-8,3.584-8,8v48c0,4.416,3.584,8,8,8h144c4.416,0,8-3.584,8-8v-48C320,131.584,316.416,128,312,128
				z M304,176H176v-32h128V176z"/>
			<path d="M312,208H168c-4.416,0-8,3.584-8,8v48c0,4.416,3.584,8,8,8h144c4.416,0,8-3.584,8-8v-48C320,211.584,316.416,208,312,208
				z M304,256H176v-32h128V256z"/>
		</g>
	</g>
</g>
<g>
</g>
<g>
</g>
<g>
</g>
<g>
</g>
<g>
</g>
<g>
</g>
<g>
</g>
<g>
</g>
<g>
</g>
<g>
</g>
<g>
</g>
<g>
</g>
<g>
</g>
<g>
</g>
<g>
</g>
</svg>
