<?xml version="1.0" encoding="utf-8"?>
<!-- Generator: Adobe Illustrator 26.0.2, SVG Export Plug-In . SVG Version: 6.00 Build 0)  -->
<svg version="1.1" xmlns="http://www.w3.org/2000/svg" xmlns:xlink="http://www.w3.org/1999/xlink" x="0px" y="0px"
	 viewBox="0 0 64 64" style="enable-background:new 0 0 64 64;" xml:space="preserve">
<style type="text/css">
	.st0{fill:#49C4A8;}
	.st1{fill:#FFFFFF;}
	.st2{fill:#76E7EB;stroke:#76E7EB;stroke-width:12.1809;stroke-miterlimit:10;}
	.st3{fill:#FBB03B;}
	.st4{fill:#DEF7ED;stroke:#DEF7ED;stroke-width:6.0905;stroke-miterlimit:10;}
	.st5{fill:#D8DD75;stroke:#D8DD75;stroke-width:12.1809;stroke-miterlimit:10;}
	.st6{fill:none;stroke:#00AE68;stroke-width:12.9888;stroke-linecap:round;stroke-linejoin:round;stroke-miterlimit:10;}
	.st7{fill:#76E7EB;stroke:#76E7EB;stroke-width:4.9574;stroke-miterlimit:10;}
	.st8{fill:#DEF7ED;stroke:#DEF7ED;stroke-width:2.4787;stroke-miterlimit:10;}
	.st9{fill:#D8DD75;stroke:#D8DD75;stroke-width:4.9574;stroke-miterlimit:10;}
	.st10{fill:none;stroke:#00AE68;stroke-width:5.2862;stroke-linecap:round;stroke-linejoin:round;stroke-miterlimit:10;}
	.st11{fill:#76E7EB;stroke:#76E7EB;stroke-width:1.4631;stroke-miterlimit:10;}
	.st12{fill:#DEF7ED;stroke:#DEF7ED;stroke-width:0.7315;stroke-miterlimit:10;}
	.st13{fill:#D8DD75;stroke:#D8DD75;stroke-width:1.4631;stroke-miterlimit:10;}
	.st14{fill:none;stroke:#00AE68;stroke-width:1.5601;stroke-linecap:round;stroke-linejoin:round;stroke-miterlimit:10;}
	.st15{fill:#49C4A8;stroke:#49C4A8;stroke-width:5.6693;stroke-miterlimit:10;}
	.st16{fill:#76E7EB;stroke:#76E7EB;stroke-width:8.5039;stroke-miterlimit:10;}
	.st17{fill:#C2F2DD;stroke:#C2F2DD;stroke-width:5.6693;stroke-miterlimit:10;}
	.st18{fill:#D8DD75;stroke:#D8DD75;stroke-width:8.5039;stroke-miterlimit:10;}
	.st19{fill:#49C4A8;stroke:#49C4A8;stroke-width:11.9699;stroke-miterlimit:10;}
	.st20{fill:#76E7EB;stroke:#76E7EB;stroke-width:17.9549;stroke-miterlimit:10;}
	.st21{fill:#C2F2DD;stroke:#C2F2DD;stroke-width:11.9699;stroke-miterlimit:10;}
	.st22{fill:#D8DD75;stroke:#D8DD75;stroke-width:17.9549;stroke-miterlimit:10;}
	.st23{fill:#49C4A8;stroke:#49C4A8;stroke-width:4.4171;stroke-miterlimit:10;}
	.st24{fill:#76E7EB;stroke:#76E7EB;stroke-width:6.6256;stroke-miterlimit:10;}
	.st25{fill:#C2F2DD;stroke:#C2F2DD;stroke-width:4.4171;stroke-miterlimit:10;}
	.st26{fill:#D8DD75;stroke:#D8DD75;stroke-width:6.6256;stroke-miterlimit:10;}
	.st27{fill:#49C4A8;stroke:#49C4A8;stroke-width:1.4933;stroke-miterlimit:10;}
	.st28{fill:#76E7EB;stroke:#76E7EB;stroke-width:2.24;stroke-miterlimit:10;}
	.st29{fill:#C2F2DD;stroke:#C2F2DD;stroke-width:1.4933;stroke-miterlimit:10;}
	.st30{fill:#D8DD75;stroke:#D8DD75;stroke-width:2.24;stroke-miterlimit:10;}
</style>
<g id="Layer_1">
	<g>
		<g>
			<circle class="st27" cx="30.34" cy="40.83" r="2.94"/>
		</g>
		<g>
			<circle class="st28" cx="19.08" cy="43.04" r="2.11"/>
		</g>
		<g>
			<g>
				<path class="st3" d="M11.25,49.95c-1.02,0-1.85-0.83-1.85-1.85c0-1.02,0.83-1.85,1.85-1.85c1.02,0,1.85,0.83,1.85,1.85
					C13.1,49.13,12.27,49.95,11.25,49.95z"/>
				<path class="st3" d="M11.25,46.57c0.85,0,1.53,0.69,1.53,1.53s-0.69,1.53-1.53,1.53c-0.85,0-1.53-0.69-1.53-1.53
					S10.4,46.57,11.25,46.57 M11.25,45.95c-1.19,0-2.16,0.97-2.16,2.16s0.97,2.16,2.16,2.16s2.16-0.97,2.16-2.16
					S12.44,45.95,11.25,45.95L11.25,45.95z"/>
			</g>
		</g>
		<g>
			<circle class="st29" cx="48.35" cy="48.25" r="1.53"/>
		</g>
		<g>
			<circle class="st30" cx="41.33" cy="43.12" r="2.11"/>
		</g>
		<g>
			<line class="st0" x1="30.12" y1="8.18" x2="30.11" y2="8.18"/>
			<g>
				<path class="st0" d="M34.43,31.08c-0.82,0-1.65-0.24-2.44-0.71c-0.33,0.38-0.73,0.77-1.2,1.15c1.09,0.75,2.32,1.16,3.64,1.16
					c0.18,0,0.36-0.01,0.54-0.04c1.32-0.32,2.37-0.89,3.08-1.38c0.34-0.24,0.67-0.51,1-0.8c0.05-0.04,0.07-0.07,0.08-0.07
					c0.01-0.02,0.03-0.02,0.05-0.03c0.81-0.73,1.6-1.62,2.32-2.62c2.62-3.66,3.54-7.72,2.46-10.86c-0.29-0.84-0.89-0.75-1.06-0.71
					c-0.12,0.03-0.22,0.08-0.3,0.15c-0.99,0.49-6.87,3.75-7.39,11.84c-0.06,0.92,0.11,1.81,0.47,2.65
					C35.22,30.99,34.81,31.08,34.43,31.08z M43.84,17.14L43.84,17.14c0,0.02,0,0.03,0,0.05C43.84,17.17,43.84,17.15,43.84,17.14z
					 M36.79,28.26c0.39-6.14,4.22-9.14,5.86-10.15c0.55,2.55-0.34,5.74-2.45,8.7c-0.95,1.33-2.06,2.45-3.13,3.21
					C36.85,29.43,36.75,28.83,36.79,28.26z"/>
				<path class="st0" d="M49.18,27.72c-0.87-0.44-3.05-0.29-3.85-0.05c-2.37,0.71-4.91,2.54-4.91,5.52c0,0,0,0.01,0,0.01
					c-0.86-0.3-1.59-0.78-2.16-1.37c-0.39,0.26-0.87,0.54-1.43,0.79c0.99,1.12,2.35,1.96,3.9,2.32c0.01,0.02,0.02,0.04,0.02,0.06
					c0.72,0.1,1.35,0.13,1.84,0.12c3.64-0.15,6.56-3.37,7.01-6.49c0-0.03,0.01-0.07,0.01-0.1l0-0.09
					C49.62,28.15,49.45,27.86,49.18,27.72z M42.03,33.53c-0.01-0.11-0.02-0.23-0.02-0.34c0-1.38,0.99-3.16,3.77-4
					c0.48-0.14,1.46-0.19,2.1-0.15C47.24,31.24,44.96,33.72,42.03,33.53z"/>
				<path class="st0" d="M22.61,31.4c-0.51,0.64-1.2,1.2-2.02,1.58c0.02,0.64-0.08,1.25-0.24,1.79c1.11-0.36,2.1-0.97,2.89-1.74
					c0.01-0.05,0.04-0.1,0.08-0.13c0.19-0.17,0.37-0.34,0.52-0.52c0.05-0.07,0.11-0.13,0.16-0.2c0,0,0.01,0,0.01,0
					c0.38-0.47,0.65-0.94,0.84-1.37c-0.02-0.01-0.03-0.01-0.05-0.02c0.35-0.83,0.53-1.73,0.47-2.65
					c-0.52-8.09-6.41-11.35-7.39-11.84c-0.08-0.07-0.18-0.12-0.3-0.15c-0.18-0.05-0.78-0.13-1.06,0.71
					c-1.07,3.14-0.15,7.2,2.46,10.86C20.08,29.27,21.35,30.53,22.61,31.4z M16.62,17.14L16.62,17.14c0.01,0.02,0.01,0.03,0.01,0.05
					C16.63,17.17,16.62,17.15,16.62,17.14z M17.82,18.11c1.63,1.03,5.47,4.07,5.86,10.15c0.04,0.58-0.06,1.17-0.28,1.75
					c-1.07-0.76-2.18-1.88-3.13-3.21C18.16,23.85,17.28,20.67,17.82,18.11z"/>
				<path class="st0" d="M30.34,31.18c0.46-0.36,0.86-0.74,1.19-1.11c-0.02-0.01-0.04-0.02-0.05-0.04c1.76-2.02,2.98-5.22,2.98-9.72
					c0-3.26-1.2-10.22-3.41-12.43c-0.12-0.29-0.41-0.5-0.74-0.5c-0.02,0-0.04,0-0.07,0.01c-0.02,0-0.04-0.01-0.07-0.01h-0.01
					c-0.33,0-0.62,0.21-0.73,0.5c-2.1,2.08-3.46,8.36-3.46,11.98c0,4.23,1.22,7.86,3.19,10.16c-0.94,0.69-2,1.06-3.11,1.06
					c-0.21,0-0.44-0.03-0.67-0.09c-0.19,0.44-0.46,0.93-0.84,1.41c0.53,0.18,1.03,0.28,1.51,0.28c1.45,0,2.94-0.5,4.26-1.52
					C30.31,31.16,30.33,31.17,30.34,31.18z M27.55,19.86c0-3.67,1.34-8.69,2.68-10.49c1.38,1.91,2.63,7.46,2.63,10.95
					c0,3.31-0.74,6.1-2.13,8.07c-0.14,0.19-0.28,0.37-0.43,0.55C28.7,27.07,27.55,24.01,27.55,19.86z"/>
				<path class="st0" d="M20.06,33.2c0,0-0.01,0-0.01,0c0,0,0-0.01,0-0.01c0-0.4-0.05-0.78-0.13-1.14
					c-0.02-0.06-0.04-0.13-0.06-0.19c-0.01-0.02,0-0.03-0.01-0.05c-0.64-2.18-2.73-3.55-4.71-4.14c-0.8-0.24-2.98-0.38-3.85,0.05
					c-0.27,0.14-0.44,0.42-0.44,0.73l0,0.09c0,0.03,0,0.07,0.01,0.1c0.46,3.11,3.38,6.34,7.01,6.49c-0.63,0.96-1.72,1.6-2.96,1.6
					c-0.44,0-0.8,0.36-0.8,0.8s0.36,0.8,0.8,0.8c2.07,0,3.87-1.24,4.67-3.01C19.84,34.72,20.05,33.99,20.06,33.2z M18.44,33.53
					c-2.93,0.18-5.22-2.3-5.86-4.48c0.65-0.04,1.62,0,2.1,0.15c2.78,0.83,3.77,2.61,3.77,4C18.46,33.31,18.45,33.42,18.44,33.53z"/>
				<path class="st0" d="M45.55,36.73c-1,0-1.9-0.41-2.54-1.08c-0.15,0.01-0.31,0.01-0.5,0.01c-0.41,0-0.93-0.02-1.5-0.09
					c0.86,1.63,2.57,2.75,4.54,2.75c0.44,0,0.8-0.36,0.8-0.8S45.99,36.73,45.55,36.73z"/>
			</g>
		</g>
		<path class="st0" d="M30.26,27.03c0,0-1.96-7.23,0.11-15.04C30.37,11.99,29.7,18.43,30.26,27.03z"/>
		<path class="st0" d="M18,19.51c0,0,3.69,4.11,5.33,9.84C23.33,29.35,21.4,24.94,18,19.51z"/>
		<path class="st1" d="M13.46,29.87c0,0,2.87,0.74,4.84,3.27C18.3,33.13,16.39,31.47,13.46,29.87z"/>
		<path class="st0" d="M42.21,19.55c0,0-3.42,3.95-4.73,9.44C37.48,28.99,39.15,24.76,42.21,19.55z"/>
		<path class="st1" d="M47.22,29.73c0,0-2.88,0.44-4.49,3.13C42.73,32.86,44.43,31.19,47.22,29.73z"/>
	</g>
</g>
<g id="Layer_2">
</g>
</svg>
