<svg id="Group_822" data-name="Group 822" xmlns="http://www.w3.org/2000/svg" xmlns:xlink="http://www.w3.org/1999/xlink" width="43.686" height="45.516" viewBox="0 0 43.686 45.516">
  <defs>
    <clipPath id="clip-path">
      <rect id="Rectangle_1632" data-name="Rectangle 1632" width="43.686" height="45.516" fill="none"/>
    </clipPath>
  </defs>
  <g id="Group_821" data-name="Group 821" clip-path="url(#clip-path)">
    <path id="Path_809" data-name="Path 809" d="M23.547,40.938a3.761,3.761,0,1,1,3.761-3.762,3.765,3.765,0,0,1-3.761,3.762" transform="translate(-0.99 -1.672)" fill="#fff"/>
    <path id="Path_810" data-name="Path 810" d="M23.513,34.019a3.123,3.123,0,1,1-3.123,3.123,3.123,3.123,0,0,1,3.123-3.123m0-1.276a4.4,4.4,0,1,0,4.4,4.4,4.4,4.4,0,0,0-4.4-4.4" transform="translate(-0.956 -1.638)" fill="#fff"/>
    <path id="Path_811" data-name="Path 811" d="M13.273,39.718a2.237,2.237,0,1,0-2.237,2.237,2.237,2.237,0,0,0,2.237-2.237" transform="translate(-0.44 -1.875)" fill="#76e7eb"/>
    <circle id="Ellipse_368" data-name="Ellipse 368" cx="2.237" cy="2.237" r="2.237" transform="translate(8.359 35.605)" fill="none" stroke="#76e7eb" stroke-miterlimit="10" stroke-width="1.668"/>
    <path id="Path_812" data-name="Path 812" d="M2.309,47.359A1.959,1.959,0,1,1,4.268,45.4a1.961,1.961,0,0,1-1.959,1.96" transform="translate(-0.017 -2.174)" fill="#fbb03b"/>
    <path id="Path_813" data-name="Path 813" d="M2.291,43.754A1.627,1.627,0,1,1,.664,45.381a1.627,1.627,0,0,1,1.627-1.627m0-.664a2.291,2.291,0,1,0,2.291,2.291A2.294,2.294,0,0,0,2.291,43.09" transform="translate(0 -2.156)" fill="#fbb03b"/>
    <path id="Path_814" data-name="Path 814" d="M45.4,45.577A1.627,1.627,0,1,0,43.771,47.2,1.627,1.627,0,0,0,45.4,45.577" transform="translate(-2.109 -2.199)" fill="#def7ed"/>
    <path id="Path_815" data-name="Path 815" d="M45.4,45.577A1.627,1.627,0,1,0,43.771,47.2,1.627,1.627,0,0,0,45.4,45.577Z" transform="translate(-2.109 -2.199)" fill="none" stroke="#def7ed" stroke-miterlimit="10" stroke-width="0.834"/>
    <path id="Path_816" data-name="Path 816" d="M33.664,39.809A2.237,2.237,0,1,1,35.9,42.046a2.237,2.237,0,0,1-2.237-2.237" transform="translate(-1.685 -1.88)" fill="#d8dd75"/>
    <circle id="Ellipse_369" data-name="Ellipse 369" cx="2.237" cy="2.237" r="2.237" transform="translate(31.98 35.692)" fill="none" stroke="#d8dd75" stroke-miterlimit="10" stroke-width="1.668"/>
    <line id="Line_44" data-name="Line 44" x1="0.015" transform="translate(22.307 0.845)" fill="none" stroke="#00ae68" stroke-linecap="round" stroke-linejoin="round" stroke-width="1.779"/>
    <path id="Path_817" data-name="Path 817" d="M28.106,25.645a5.092,5.092,0,0,1-2.593-.756,10.409,10.409,0,0,1-1.272,1.216,6.783,6.783,0,0,0,3.865,1.23,4.129,4.129,0,0,0,.575-.043,9.936,9.936,0,0,0,3.268-1.46,13.161,13.161,0,0,0,1.063-.849c.049-.047.078-.077.08-.079a.319.319,0,0,1,.051-.037A17.492,17.492,0,0,0,35.6,22.089c2.777-3.882,3.754-8.192,2.616-11.527-.3-.891-.941-.8-1.13-.75a.854.854,0,0,0-.319.159A14.944,14.944,0,0,0,28.922,22.54a6.129,6.129,0,0,0,.5,2.809,3.524,3.524,0,0,1-1.312.3m9.992-14.8H38.1a.341.341,0,0,1-.01.05c0-.016,0-.033,0-.05m-7.489,11.8a13.371,13.371,0,0,1,6.219-10.775c.582,2.71-.358,6.095-2.6,9.233a14.755,14.755,0,0,1-3.321,3.4,4.474,4.474,0,0,1-.3-1.859" transform="translate(-1.213 -0.49)" fill="#fff"/>
    <path id="Path_818" data-name="Path 818" d="M44.095,22.713a7.883,7.883,0,0,0-4.086-.055c-2.517.755-5.207,2.691-5.207,5.859v.013a6.037,6.037,0,0,1-2.3-1.452,10.633,10.633,0,0,1-1.517.834,7.976,7.976,0,0,0,4.14,2.463c.009.022.018.043.027.065a13.429,13.429,0,0,0,1.951.132,8.305,8.305,0,0,0,7.443-6.884.789.789,0,0,0,.009-.105l0-.1a.843.843,0,0,0-.465-.771m-7.585,6.165c-.011-.119-.017-.239-.017-.361,0-1.47,1.052-3.355,4-4.241a7.955,7.955,0,0,1,2.231-.155c-.681,2.318-3.105,4.954-6.217,4.756" transform="translate(-1.551 -1.122)" fill="#fff"/>
    <path id="Path_819" data-name="Path 819" d="M14.738,25.979a5.971,5.971,0,0,1-2.141,1.68,6.035,6.035,0,0,1-.256,1.9,8,8,0,0,0,3.071-1.843.286.286,0,0,1,.082-.142,6.653,6.653,0,0,0,.557-.552c.056-.069.112-.139.165-.209l.01,0a6.263,6.263,0,0,0,.9-1.452l-.056-.021a6.127,6.127,0,0,0,.5-2.809A14.946,14.946,0,0,0,9.717,9.971.852.852,0,0,0,9.4,9.813c-.188-.05-.826-.142-1.13.749C7.13,13.9,8.108,18.206,10.885,22.089a16.03,16.03,0,0,0,3.853,3.89M8.382,10.845h.006c0,.017,0,.034,0,.05a.339.339,0,0,1-.01-.05m1.274,1.035a13.5,13.5,0,0,1,6.221,10.768,4.475,4.475,0,0,1-.3,1.859,14.755,14.755,0,0,1-3.321-3.4c-2.242-3.135-3.183-6.516-2.6-9.225" transform="translate(-0.39 -0.49)" fill="#fff"/>
    <path id="Path_820" data-name="Path 820" d="M23.413,25.262a9.866,9.866,0,0,0,1.262-1.181c-.019-.013-.037-.025-.056-.039,1.864-2.138,3.164-5.536,3.164-10.314,0-3.456-1.272-10.844-3.617-13.2A.855.855,0,0,0,23.375,0c-.024,0-.047,0-.071,0s-.047,0-.071,0h-.016a.833.833,0,0,0-.776.529C20.213,2.74,18.764,9.4,18.764,13.245c0,4.492,1.3,8.342,3.389,10.788a5.522,5.522,0,0,1-3.3,1.123,2.959,2.959,0,0,1-.713-.1,6.79,6.79,0,0,1-.889,1.493,4.914,4.914,0,0,0,1.6.3,7.345,7.345,0,0,0,4.518-1.618l.044.034M20.454,13.245c0-3.892,1.418-9.222,2.844-11.136,1.461,2.029,2.795,7.919,2.795,11.62A14.828,14.828,0,0,1,23.827,22.3c-.144.2-.3.4-.451.581-1.7-1.983-2.922-5.23-2.922-9.633" transform="translate(-0.863 0)" fill="#fff"/>
    <path id="Path_821" data-name="Path 821" d="M11.741,28.526l-.011,0v-.013a5.226,5.226,0,0,0-.14-1.208c-.019-.067-.038-.135-.061-.2a.339.339,0,0,1-.007-.053c-.674-2.309-2.9-3.765-5-4.4a7.883,7.883,0,0,0-4.086.055.843.843,0,0,0-.465.771l0,.1a.789.789,0,0,0,.009.105,8.3,8.3,0,0,0,7.443,6.884,3.752,3.752,0,0,1-3.142,1.7.845.845,0,0,0,0,1.691,5.452,5.452,0,0,0,4.96-3.2,6.155,6.155,0,0,0,.5-2.239m-1.718.352c-3.115.2-5.535-2.439-6.217-4.756a7.949,7.949,0,0,1,2.231.155c2.951.885,4,2.771,4,4.241,0,.122-.006.242-.017.361" transform="translate(-0.099 -1.122)" fill="#fff"/>
    <path id="Path_822" data-name="Path 822" d="M40.481,32.727a3.744,3.744,0,0,1-2.7-1.146c-.155.007-.331.012-.53.012a13.786,13.786,0,0,1-1.592-.095,5.447,5.447,0,0,0,4.819,2.918.845.845,0,1,0,0-1.69" transform="translate(-1.784 -1.576)" fill="#fff"/>
    <path id="Path_823" data-name="Path 823" d="M23.606,21.108a34.21,34.21,0,0,1,.119-15.962,104.709,104.709,0,0,0-.119,15.962" transform="translate(-1.137 -0.257)" fill="#fff"/>
    <path id="Path_824" data-name="Path 824" d="M9.953,13.547A29.447,29.447,0,0,1,15.612,23.99,90.451,90.451,0,0,0,9.953,13.547" transform="translate(-0.498 -0.678)" fill="#fff"/>
    <path id="Path_825" data-name="Path 825" d="M4.88,25.121a10.52,10.52,0,0,1,5.135,3.466A32.008,32.008,0,0,0,4.88,25.121" transform="translate(-0.244 -1.257)" fill="#fff"/>
    <path id="Path_826" data-name="Path 826" d="M36.733,13.59a26.257,26.257,0,0,0-5.02,10.021,80.579,80.579,0,0,1,5.02-10.021" transform="translate(-1.587 -0.68)" fill="#fff"/>
    <path id="Path_827" data-name="Path 827" d="M42.349,24.971a7.292,7.292,0,0,0-4.764,3.321,21.742,21.742,0,0,1,4.764-3.321" transform="translate(-1.881 -1.25)" fill="#fff"/>
  </g>
</svg>
