<svg fill="#DADD44" xmlns="http://www.w3.org/2000/svg" width="73.013" height="48.2" viewBox="0 0 73.013 48.2">
  <g id="microwave-oven" transform="translate(0 -101.35)">
    <g id="Group_780" data-name="Group 780" transform="translate(0 101.35)">
      <path id="Path_678" data-name="Path 678" d="M67.205,145.645H5.808A5.814,5.814,0,0,1,0,139.837V107.158a5.815,5.815,0,0,1,5.808-5.808h61.4a5.814,5.814,0,0,1,5.808,5.808v32.679A5.815,5.815,0,0,1,67.205,145.645Zm-61.4-42.082a3.6,3.6,0,0,0-3.6,3.6v32.679a3.6,3.6,0,0,0,3.6,3.6h61.4a3.6,3.6,0,0,0,3.6-3.6V107.158a3.6,3.6,0,0,0-3.6-3.6H5.808Z" transform="translate(0 -101.35)" fill="#dadd44"/>
    </g>
    <g id="Group_781" data-name="Group 781" transform="translate(5.199 107.777)">
      <path id="Path_679" data-name="Path 679" d="M83.682,185.285H43.58a1.106,1.106,0,0,1-1.106-1.106V154.962a1.106,1.106,0,0,1,1.106-1.106h40.1a1.106,1.106,0,0,1,1.106,1.106v29.216A1.106,1.106,0,0,1,83.682,185.285Zm-39-2.212H82.576v-27H44.687Z" transform="translate(-42.474 -153.856)" fill="#dadd44"/>
    </g>
    <g id="Group_782" data-name="Group 782" transform="translate(50.257 101.35)">
      <path id="Path_680" data-name="Path 680" d="M411.661,145.646a1.106,1.106,0,0,1-1.106-1.106V102.457a1.106,1.106,0,1,1,2.213,0v42.082A1.106,1.106,0,0,1,411.661,145.646Z" transform="translate(-410.555 -101.351)" fill="#dadd44"/>
    </g>
    <g id="Group_783" data-name="Group 783" transform="translate(54.55 108.486)">
      <path id="Path_681" data-name="Path 681" d="M459.17,167.451H446.724a1.106,1.106,0,0,1-1.106-1.106v-5.6a1.106,1.106,0,0,1,1.106-1.106H459.17a1.106,1.106,0,0,1,1.106,1.106v5.6A1.106,1.106,0,0,1,459.17,167.451Zm-11.339-2.213h10.233v-3.385H447.831Z" transform="translate(-445.618 -159.641)" fill="#dadd44"/>
    </g>
    <g id="Group_784" data-name="Group 784" transform="translate(57.039 131.507)">
      <path id="Path_682" data-name="Path 682" d="M470.8,357.393a4.845,4.845,0,1,1,4.845-4.845A4.851,4.851,0,0,1,470.8,357.393Zm0-7.478a2.633,2.633,0,1,0,2.633,2.633A2.636,2.636,0,0,0,470.8,349.914Z" transform="translate(-465.952 -347.702)" fill="#dadd44"/>
    </g>
    <g id="Group_785" data-name="Group 785" transform="translate(58.444 121.252)">
      <path id="Path_683" data-name="Path 683" d="M483.2,266.141h-4.668a1.106,1.106,0,0,1,0-2.212H483.2a1.106,1.106,0,0,1,0,2.212Z" transform="translate(-477.429 -263.928)" fill="#dadd44"/>
    </g>
    <g id="Group_786" data-name="Group 786" transform="translate(58.444 125.599)">
      <path id="Path_684" data-name="Path 684" d="M483.2,301.656h-4.668a1.106,1.106,0,0,1,0-2.212H483.2a1.106,1.106,0,0,1,0,2.212Z" transform="translate(-477.429 -299.444)" fill="#dadd44"/>
    </g>
    <g id="Group_787" data-name="Group 787" transform="translate(8.441 143.432)">
      <path id="Path_685" data-name="Path 685" d="M75.69,451.24H72.039a3.09,3.09,0,0,1-3.086-3.086v-1.925a1.106,1.106,0,0,1,1.106-1.106H77.67a1.106,1.106,0,0,1,1.106,1.106v1.925a3.09,3.09,0,0,1-3.086,3.086Zm-4.525-3.905v.819a.875.875,0,0,0,.874.874H75.69a.875.875,0,0,0,.874-.874v-.819Z" transform="translate(-68.953 -445.122)" fill="#dadd44"/>
    </g>
    <g id="Group_788" data-name="Group 788" transform="translate(54.749 143.432)">
      <path id="Path_686" data-name="Path 686" d="M453.982,451.24h-3.651a3.09,3.09,0,0,1-3.086-3.086v-1.925a1.106,1.106,0,0,1,1.106-1.106h7.611a1.106,1.106,0,0,1,1.106,1.106v1.925A3.09,3.09,0,0,1,453.982,451.24Zm-4.525-3.905v.819a.875.875,0,0,0,.874.874h3.651a.875.875,0,0,0,.874-.874v-.819Z" transform="translate(-447.245 -445.122)" fill="#dadd44"/>
    </g>
  </g>
</svg>
